<svg xmlns="http://www.w3.org/2000/svg" viewBox="0 0 128 128" fill="none">
  <ellipse cx="64" cy="112" rx="30" ry="6" fill="#1c2b24" opacity="0.16"/>
  <rect x="40" y="34" width="48" height="62" rx="5" fill="#e8f4fa" stroke="#2a7a9e" stroke-width="3.5"/>
  <path d="M48 48c8-6 20-6 28 0" stroke="#2a7a9e" stroke-width="4" stroke-linecap="round"/>
  <path d="M50 62c6-4 16-4 22 0" stroke="#5ab0c8" stroke-width="3.5" stroke-linecap="round"/>
  <path d="M52 74c5-3 14-3 18 0" stroke="#2a7a9e" stroke-width="3" stroke-linecap="round" opacity="0.7"/>
  <circle cx="88" cy="90" r="10" fill="#2a7a9e"/>
  <path d="M84 90h8M88 86v8" stroke="#e8f4fa" stroke-width="2.2" stroke-linecap="round"/>
  <path d="M24 70c10-16 22-8 28 4-12 0-20 8-28 18 0-10 0-16 0-22Z" fill="#3d9aaa" opacity="0.9"/>
</svg>
