<svg xmlns="http://www.w3.org/2000/svg" viewBox="0 0 128 128" fill="none">
  <ellipse cx="64" cy="112" rx="32" ry="6" fill="#1c2b24" opacity="0.16"/>
  <path d="M36 86V46c0-5 4-9 9-9h38c5 0 9 4 9 9v40" fill="#8a5fb0"/>
  <path d="M34 86h60c2 0 4 2 4 4v8H30v-8c0-2 2-4 4-4Z" fill="#5a3f7a"/>
  <path d="M44 60c6-14 20-14 26 0M70 60c4-10 14-10 18 0" stroke="#d8c8f0" stroke-width="3" stroke-linecap="round" fill="none"/>
  <path d="M50 74c4-8 14-8 18 0" stroke="#d8c8f0" stroke-width="2.5" stroke-linecap="round" opacity="0.65"/>
  <circle cx="64" cy="26" r="11" fill="#7a4fc4"/>
  <path d="M64 16c8 6 10 14 0 20-10-6-8-14 0-20Z" fill="#f3eef8" opacity="0.35"/>
  <path d="M40 100c12-10 28-4 36 8" stroke="#a88ad0" stroke-width="2.5" stroke-linecap="round" opacity="0.5"/>
</svg>
