<svg xmlns="http://www.w3.org/2000/svg" viewBox="0 0 128 128" fill="none">
  <ellipse cx="64" cy="112" rx="32" ry="6" fill="#1c2b24" opacity="0.16"/>
  <path d="M36 86V44c0-4 3-8 8-8h40c5 0 8 4 8 8v42" fill="#6b4f8a"/>
  <path d="M34 86h60c2 0 4 2 4 4v8H30v-8c0-2 2-4 4-4Z" fill="#4d3868"/>
  <path d="M44 40h40" stroke="#f7f1e4" stroke-width="3" stroke-linecap="round" opacity="0.35"/>
  <rect x="48" y="50" width="32" height="4" rx="1" fill="#f7f1e4" opacity="0.45"/>
  <rect x="48" y="60" width="26" height="3" rx="1" fill="#f7f1e4" opacity="0.35"/>
  <rect x="48" y="68" width="28" height="3" rx="1" fill="#f7f1e4" opacity="0.3"/>
  <path d="M40 36c0-10 8-18 24-18s22 8 22 18" stroke="#6b4f8a" stroke-width="4" stroke-linecap="round"/>
  <circle cx="64" cy="22" r="5" fill="#c45c3e"/>
  <path d="M30 98h68" stroke="#1c2b24" stroke-width="3" stroke-linecap="round" opacity="0.25"/>
</svg>
