<svg xmlns="http://www.w3.org/2000/svg" viewBox="0 0 128 128" fill="none">
  <ellipse cx="64" cy="108" rx="34" ry="8" fill="#1c2b24" opacity="0.18"/>
  <path d="M28 78c2-28 18-48 36-48s34 20 36 48c1 14-10 26-36 26S27 92 28 78Z" fill="#3d6b4f"/>
  <path d="M34 76c3-22 15-38 30-38 14 0 26 14 29 34" stroke="#2a4d39" stroke-width="3" stroke-linecap="round"/>
  <circle cx="50" cy="68" r="7" fill="#f3eee0"/>
  <circle cx="78" cy="68" r="7" fill="#f3eee0"/>
  <circle cx="52" cy="69" r="3.2" fill="#1c2b24"/>
  <circle cx="80" cy="69" r="3.2" fill="#1c2b24"/>
  <path d="M54 84c6 6 14 6 20 0" stroke="#1c2b24" stroke-width="3" stroke-linecap="round"/>
  <text x="44" y="52" fill="#f3eee0" font-family="Georgia, serif" font-size="16" font-weight="700" opacity="0.55">a</text>
  <text x="62" y="44" fill="#c45c3e" font-family="Georgia, serif" font-size="18" font-weight="700" opacity="0.7">b</text>
  <text x="78" y="54" fill="#f3eee0" font-family="Georgia, serif" font-size="14" opacity="0.45">x</text>
  <path d="M40 58c8-10 18-8 22-2" stroke="#f3eee0" stroke-width="2" opacity="0.25" stroke-linecap="round"/>
</svg>
