<svg xmlns="http://www.w3.org/2000/svg" viewBox="0 0 128 128" fill="none">
  <ellipse cx="64" cy="112" rx="28" ry="6" fill="#1c2b24" opacity="0.12"/>
  <path d="M40 86c-8-18-4-40 12-52 10-8 24-10 36-4 14 8 20 28 16 48-2 12-12 24-28 28-18 4-30-4-36-20Z" fill="#5a6b8a" opacity="0.72"/>
  <path d="M48 84c-4-14-1-30 10-40 8-6 20-8 28-2 10 6 14 22 11 36" stroke="#3d4d68" stroke-width="2.5" opacity="0.7"/>
  <circle cx="54" cy="64" r="6" fill="#f3eee0" opacity="0.85"/>
  <circle cx="74" cy="62" r="6" fill="#f3eee0" opacity="0.85"/>
  <circle cx="55" cy="64" r="2.8" fill="#1c2b24"/>
  <circle cx="75" cy="62" r="2.8" fill="#1c2b24"/>
  <path d="M56 78c5 4 12 4 16-1" stroke="#f3eee0" stroke-width="2.5" stroke-linecap="round" opacity="0.7"/>
  <path d="M34 48c12-16 28-10 34-2M86 44c8-10 18-6 22 2" stroke="#5a6b8a" stroke-width="3" stroke-linecap="round" opacity="0.45"/>
  <text x="58" y="42" fill="#c45c3e" font-family="Georgia, serif" font-size="16" font-weight="700" opacity="0.65">?</text>
  <path d="M44 96c8 8 28 10 40 2" stroke="#3d4d68" stroke-width="2" opacity="0.35" stroke-dasharray="4 4"/>
</svg>
