<svg xmlns="http://www.w3.org/2000/svg" viewBox="0 0 128 128" fill="none">
  <ellipse cx="64" cy="112" rx="22" ry="5" fill="#1c2b24" opacity="0.1"/>
  <path d="M38 78c-6-22 4-46 22-54 16-8 34-2 42 16 8 18 4 40-10 52-10 8-22 10-34 6-12-4-18-10-20-20Z" fill="#6a7eb0" opacity="0.8"/>
  <path d="M48 96c6 10 14 12 22 8 8 6 18 4 24-4" fill="#5a6e9a" opacity="0.65"/>
  <path d="M70 40c8-6 18-4 24 4" stroke="#a8b8e0" stroke-width="3" stroke-linecap="round" opacity="0.6"/>
  <circle cx="54" cy="68" r="6" fill="#f7f1e4"/>
  <circle cx="76" cy="66" r="6" fill="#f7f1e4"/>
  <circle cx="55" cy="68" r="2.6" fill="#1c2b24"/>
  <circle cx="77" cy="66" r="2.6" fill="#1c2b24"/>
  <path d="M58 82c5 3 11 2 15-2" stroke="#f7f1e4" stroke-width="2.5" stroke-linecap="round" opacity="0.8"/>
  <path d="M86 52c6 0 12 4 14 10" stroke="#c9d4f0" stroke-width="2.5" stroke-linecap="round" opacity="0.5"/>
</svg>