<svg xmlns="http://www.w3.org/2000/svg" viewBox="0 0 128 128" fill="none">
  <ellipse cx="64" cy="112" rx="30" ry="5" fill="#1c2b24" opacity="0.12"/>
  <ellipse cx="64" cy="86" rx="36" ry="18" fill="#c4a070"/>
  <path d="M40 86c0-10 10-18 24-18s24 8 24 18" fill="#a87848"/>
  <ellipse cx="64" cy="58" rx="22" ry="24" fill="#d4884a"/>
  <path d="M48 48c0-14 8-24 16-24s16 10 16 24" fill="#e8a868"/>
  <circle cx="56" cy="56" r="5" fill="#f7f1e4"/>
  <circle cx="72" cy="56" r="5" fill="#f7f1e4"/>
  <circle cx="57" cy="57" r="2.2" fill="#1c2b24"/>
  <circle cx="73" cy="57" r="2.2" fill="#1c2b24"/>
  <path d="M52 44c-6-10-4-18 2-22M76 44c6-10 4-18-2-22" stroke="#8a5a30" stroke-width="3.5" stroke-linecap="round"/>
  <path d="M28 90c-10 2-16 10-14 18M100 90c10 2 16 10 14 18" stroke="#8a5a30" stroke-width="4" stroke-linecap="round"/>
  <path d="M58 70h8" stroke="#6a4020" stroke-width="2.5" stroke-linecap="round"/>
  <circle cx="88" cy="78" r="6" fill="#2a7a9e" opacity="0.35"/>
</svg>