<svg xmlns="http://www.w3.org/2000/svg" viewBox="0 0 128 128" fill="none">
  <ellipse cx="64" cy="112" rx="30" ry="6" fill="#1c2b24" opacity="0.14"/>
  <path d="M30 82c2-30 16-52 34-52s32 22 34 52c1 12-12 24-34 24S29 94 30 82Z" fill="#4a8f5e"/>
  <path d="M36 80c4-24 14-40 28-40 13 0 24 14 27 36" fill="#5fad72"/>
  <path d="M48 42c6-14 16-18 24-10-4 8-10 12-18 14-4 0-6-2-6-4Z" fill="#2f6b4f"/>
  <circle cx="50" cy="74" r="7" fill="#f7f1e4"/>
  <circle cx="78" cy="74" r="7" fill="#f7f1e4"/>
  <circle cx="52" cy="75" r="3" fill="#1c2b24"/>
  <circle cx="80" cy="75" r="3" fill="#1c2b24"/>
  <path d="M56 90c5 5 12 5 17 0" stroke="#2f6b4f" stroke-width="3" stroke-linecap="round"/>
  <circle cx="44" cy="60" r="3" fill="#c9e07a" opacity="0.8"/>
  <circle cx="86" cy="58" r="2.5" fill="#c9e07a" opacity="0.7"/>
</svg>