<svg xmlns="http://www.w3.org/2000/svg" viewBox="0 0 128 128" fill="none">
  <ellipse cx="64" cy="112" rx="30" ry="5" fill="#1c2b24" opacity="0.12"/>
  <ellipse cx="64" cy="78" rx="30" ry="24" fill="#7a6a3a"/>
  <ellipse cx="64" cy="74" rx="24" ry="16" fill="#9a8a4a"/>
  <path d="M34 70c-8-4-14-2-18 6M94 70c8-4 14-2 18 6" stroke="#c9a227" stroke-width="3.5" stroke-linecap="round"/>
  <path d="M40 58 L28 40M88 58 L100 40" stroke="#5a4a28" stroke-width="3.5" stroke-linecap="round"/>
  <path d="M32 42 L22 34M96 42 L106 34" stroke="#c9a227" stroke-width="2.5" stroke-linecap="round"/>
  <circle cx="54" cy="70" r="5" fill="#f7f1e4"/>
  <circle cx="74" cy="70" r="5" fill="#f7f1e4"/>
  <circle cx="55" cy="71" r="2.2" fill="#1c2b24"/>
  <circle cx="75" cy="71" r="2.2" fill="#1c2b24"/>
  <path d="M58 86h12" stroke="#3a3020" stroke-width="3" stroke-linecap="round"/>
  <path d="M50 52c4-10 10-14 14-14s10 4 14 14" stroke="#c9a227" stroke-width="2.5" fill="none"/>
</svg>